<?xml version="1.0" encoding="utf-8"?>
<!-- Generator: Adobe Illustrator 25.0.0, SVG Export Plug-In . SVG Version: 6.00 Build 0)  -->
<svg version="1.1" id="Layer_1" xmlns="http://www.w3.org/2000/svg" xmlns:xlink="http://www.w3.org/1999/xlink" x="0px" y="0px"
	 viewBox="0 0 1080 1080" style="enable-background:new 0 0 1080 1080;" xml:space="preserve">
<style type="text/css">
	.st0{fill:#CE7C2F;}
	.st1{fill:#872323;}
	.st2{fill:#F17092;}
	.st3{fill:#FFFFFF;}
	.st4{fill:#EEABCC;}
</style>
<g id="head">
	<ellipse class="st0" cx="549.3" cy="543.8" rx="407.3" ry="531.8"/>
	<ellipse class="st0" cx="968.1" cy="558.5" rx="69.5" ry="117.3"/>
	<ellipse class="st0" cx="111.9" cy="565.5" rx="69.5" ry="117.3"/>
</g>
<g id="mouth">
	<path class="st1" d="M875.2,674.6c0,175.9-145.6,318.5-325.2,318.5S224.8,850.5,224.8,674.6"/>
	<path class="st2" d="M778.4,909.6c-48.8-25-133.1-41.6-229-41.6c-94.2,0-177.3,16-226.5,40.2c59,57.5,139.5,93,228.5,93
		C639.5,1001.3,719.5,966.3,778.4,909.6z"/>
	<path class="st3" d="M250.2,800.7h603.2c16.5-39.1,25.7-82.2,25.7-127.3H224.5C224.5,718.6,233.7,761.6,250.2,800.7z"/>
</g>
<g id="hair">
	<path class="st4" d="M547.1,4.4L547.1,4.4c-185.2,0-343.1,119.5-395.9,283c-12.1,37.6-18.6,77.5-18.6,118.9v157h19.5
		c-0.6-5.7-0.9-11.4-0.9-17.2c0-68.3,38.6-127.8,95.7-159.2v-117h595.8v142.4c58.3,28.2,99.4,84.6,104.2,151h14.7V406.9
		C961.7,185.5,775.2,4.4,547.1,4.4z"/>
</g>
</svg>
